<svg width="90" height="55" viewBox="0 0 90 55" fill="none" xmlns="http://www.w3.org/2000/svg">
<path d="M61.1337 0.13562H49.1864C48.0737 0.13562 47.0028 0.557159 46.1822 1.31593L32.5102 13.9621C32.4963 13.9761 32.4824 14.0042 32.4685 14.0183C30.1597 16.2103 30.2014 19.709 32.1764 21.887C33.9427 23.8401 37.6563 24.36 39.979 22.2664C39.9929 22.2523 40.0207 22.2523 40.0346 22.2383L51.1475 11.9527C52.0515 11.1237 53.4702 11.1799 54.2908 12.0933C55.1253 13.0066 55.0557 14.4258 54.1517 15.2688L50.5216 18.6271L70.7722 35.2357C71.1756 35.5729 71.5372 35.9383 71.871 36.3177V9.12844L64.277 1.45644C63.4564 0.613364 62.3159 0.13562 61.1337 0.13562ZM76.3356 9.15654V40.6173C76.3356 43.1044 78.3245 45.1138 80.7863 45.1138H89.6877V9.15654H76.3356ZM83.0116 40.6173C81.7877 40.6173 80.7863 39.6057 80.7863 38.3691C80.7863 37.1326 81.7877 36.1209 83.0116 36.1209C84.2356 36.1209 85.237 37.1326 85.237 38.3691C85.237 39.6057 84.2356 40.6173 83.0116 40.6173ZM0.673828 45.0997H9.57521C12.037 45.0997 14.0259 43.0904 14.0259 40.6033V9.15654H0.673828V45.0997ZM7.34987 36.1209C8.57381 36.1209 9.57521 37.1326 9.57521 38.3691C9.57521 39.6057 8.57381 40.6173 7.34987 40.6173C6.12593 40.6173 5.12452 39.6057 5.12452 38.3691C5.12452 37.1186 6.12593 36.1209 7.34987 36.1209ZM67.9766 38.7345L47.2114 21.7043L43.0388 25.5684C38.9081 29.3763 32.5797 29.011 28.894 24.9502C25.1526 20.8191 25.4447 14.4258 29.506 10.66L40.883 0.13562H29.2278C28.0456 0.13562 26.919 0.613364 26.0845 1.45644L18.4766 9.12844V40.5892H21.0218L33.6089 52.0972C37.4199 55.2307 43.0249 54.6405 46.1265 50.7905L46.1543 50.7624L48.6439 52.9403C50.8554 54.767 54.1239 54.4157 55.918 52.1815L60.2853 46.7578L61.0363 47.376C62.9418 48.9357 65.7513 48.6547 67.2951 46.7156L68.6164 45.0716C70.1742 43.1325 69.8821 40.3082 67.9766 38.7345Z" fill="#45D279"/>
</svg>
