<svg width="73" height="73" viewBox="0 0 73 73" fill="none" xmlns="http://www.w3.org/2000/svg">
<path d="M0.826172 0.989258C77.5606 0.989258 59.7266 51.9688 59.8069 59.8415L72.8049 72.9679H68.6275L57.3166 61.5285C51.0506 62.2033 37.3296 67.0715 22.8696 55.5838C8.37751 44.0961 9.18084 30.3431 0.826172 0.989258ZM13.6313 8.37993C5.64617 4.60426 12.7958 9.85806 12.7958 9.85806C20.058 14.8709 23.3998 21.6992 27.288 29.122C32.349 38.7941 39.9806 51.5671 50.4561 56.0658C60.8995 60.5645 55.9509 58.0741 51.4201 54.7001C46.8893 51.294 40.4626 40.7221 36.7994 33.7813C31.7063 24.1413 26.9988 14.7263 13.6313 8.37993Z" fill="#45D279"/>
</svg>
