<svg width="71" height="50" viewBox="0 0 71 50" fill="none" xmlns="http://www.w3.org/2000/svg">
<path d="M68.2 3.35995C63.9931 1.5786 59.783 0.900879 55.5751 0.900879C42.2171 0.899784 28.8601 7.72627 15.5021 7.72627C12.152 7.72627 8.80411 7.29708 5.45404 6.22411C5.07771 6.10368 4.70029 6.04674 4.33156 6.04674C2.4651 6.04674 0.833984 7.5051 0.833984 9.52951V44.2652C0.833984 45.648 1.61809 46.9586 2.87722 47.4907C7.08407 49.2731 11.2942 49.9508 15.5021 49.9508C28.8601 49.9508 42.2181 43.1243 55.5762 43.1243C58.9262 43.1243 62.2742 43.5535 65.6242 44.6265C66.0006 44.7469 66.378 44.8039 66.7467 44.8039C68.6132 44.8039 70.2443 43.3455 70.2443 41.3211V6.58651C70.2432 5.2026 69.4591 3.89314 68.2 3.35995ZM6.03968 11.8736C8.22173 12.4254 10.4992 12.7024 12.8418 12.8513C12.2041 16.0691 9.40168 18.4943 6.03968 18.4943V11.8736ZM6.03968 43.0773V37.846C9.76717 37.846 12.7832 40.8317 12.9491 44.5685C10.5057 44.3703 8.22173 43.8776 6.03968 43.0773ZM35.5386 35.9366C30.7461 35.9366 26.8624 31.2297 26.8624 25.4259C26.8624 19.6209 30.7472 14.9151 35.5386 14.9151C40.33 14.9151 44.2147 19.6209 44.2147 25.4259C44.2147 31.2319 40.3289 35.9366 35.5386 35.9366ZM65.0375 38.9781C63.1374 38.4974 61.1647 38.2281 59.1464 38.054C59.783 35.1986 62.1288 33.0308 65.0375 32.6585V38.9781ZM65.0375 13.1272C61.6874 12.6991 59.0878 9.87549 58.9848 6.38834C61.104 6.62593 63.1157 7.07044 65.0375 7.77444V13.1272Z" fill="#45D279"/>
</svg>
