<svg width="15" height="15" viewBox="0 0 15 15" fill="none" xmlns="http://www.w3.org/2000/svg">
<path d="M7.69756 3.71321C5.74464 3.71321 4.1694 5.28844 4.1694 7.24136C4.1694 9.19429 5.74464 10.7695 7.69756 10.7695C9.65048 10.7695 11.2257 9.19429 11.2257 7.24136C11.2257 5.28844 9.65048 3.71321 7.69756 3.71321ZM7.69756 9.53513C6.43553 9.53513 5.4038 8.50647 5.4038 7.24136C5.4038 5.97626 6.43246 4.9476 7.69756 4.9476C8.96266 4.9476 9.99132 5.97626 9.99132 7.24136C9.99132 8.50647 8.95959 9.53513 7.69756 9.53513ZM12.193 3.56889C12.193 4.02641 11.8245 4.39182 11.37 4.39182C10.9125 4.39182 10.5471 4.02334 10.5471 3.56889C10.5471 3.11443 10.9156 2.74596 11.37 2.74596C11.8245 2.74596 12.193 3.11443 12.193 3.56889ZM14.5297 4.4041C14.4775 3.30174 14.2257 2.32528 13.4182 1.52077C12.6136 0.716266 11.6372 0.464474 10.5348 0.409202C9.39869 0.344719 5.99336 0.344719 4.85722 0.409202C3.75794 0.461403 2.78147 0.713195 1.9739 1.5177C1.16632 2.32221 0.917599 3.29867 0.862327 4.40103C0.797844 5.53716 0.797844 8.9425 0.862327 10.0786C0.914528 11.181 1.16632 12.1575 1.9739 12.962C2.78147 13.7665 3.75487 14.0183 4.85722 14.0735C5.99336 14.138 9.39869 14.138 10.5348 14.0735C11.6372 14.0213 12.6136 13.7695 13.4182 12.962C14.2227 12.1575 14.4745 11.181 14.5297 10.0786C14.5942 8.9425 14.5942 5.54023 14.5297 4.4041ZM13.062 11.2977C12.8224 11.8995 12.3588 12.3632 11.7539 12.6058C10.848 12.965 8.69859 12.8821 7.69756 12.8821C6.69653 12.8821 4.54402 12.962 3.64125 12.6058C3.03941 12.3663 2.57574 11.9026 2.33316 11.2977C1.9739 10.3918 2.0568 8.24239 2.0568 7.24136C2.0568 6.24034 1.97697 4.08782 2.33316 3.18506C2.57267 2.58321 3.03634 2.11955 3.64125 1.87697C4.54709 1.5177 6.69653 1.60061 7.69756 1.60061C8.69859 1.60061 10.8511 1.52077 11.7539 1.87697C12.3557 2.11648 12.8194 2.58014 13.062 3.18506C13.4212 4.09089 13.3383 6.24034 13.3383 7.24136C13.3383 8.24239 13.4212 10.3949 13.062 11.2977Z" fill="#45D279"/>
</svg>
