<svg width="73" height="73" viewBox="0 0 73 73" fill="none" xmlns="http://www.w3.org/2000/svg">
<path d="M36.2823 0.220947C21.4011 0.220947 8.58794 9.27464 3.12086 22.1952C2.97151 22.5313 2.89062 22.8937 2.8829 23.2614C2.87518 23.6291 2.94079 23.9946 3.07589 24.3367C3.21099 24.6787 3.41288 24.9904 3.66977 25.2536C3.92666 25.5167 4.23341 25.7261 4.5721 25.8694C4.91079 26.0127 5.27463 26.0871 5.64239 26.0882C6.01014 26.0893 6.37444 26.0172 6.71401 25.876C7.05358 25.7348 7.36162 25.5274 7.62014 25.2658C7.87866 25.0043 8.08248 24.6938 8.2197 24.3526C12.8407 13.4316 23.6455 5.75777 36.2823 5.75777C43.7377 5.75777 50.5348 8.42148 55.8288 12.8572C56.1075 13.0909 56.4295 13.2675 56.7764 13.3767C57.1233 13.486 57.4883 13.5258 57.8507 13.494C58.213 13.4621 58.5655 13.3592 58.888 13.1911C59.2106 13.0231 59.4969 12.7931 59.7305 12.5143C59.9641 12.2356 60.1406 11.9135 60.2498 11.5666C60.3589 11.2196 60.3987 10.8546 60.3668 10.4923C60.3348 10.13 60.2318 9.77749 60.0637 9.45498C59.8955 9.13248 59.6654 8.84627 59.3866 8.61269C53.1363 3.37561 45.0608 0.220947 36.2823 0.220947ZM36.2823 11.2946C33.378 11.2946 30.5776 11.7914 27.9771 12.7112C27.634 12.8326 27.3183 13.0204 27.0478 13.2638C26.7774 13.5072 26.5575 13.8015 26.4008 14.1299C26.2441 14.4583 26.1537 14.8143 26.1346 15.1777C26.1155 15.541 26.1682 15.9046 26.2896 16.2476C26.411 16.5906 26.5988 16.9063 26.8423 17.1767C27.0858 17.4471 27.3801 17.6669 27.7085 17.8236C28.037 17.9802 28.393 18.0706 28.7564 18.0897C29.1197 18.1087 29.4833 18.0559 29.8263 17.9344C31.8435 17.2209 34.0097 16.8314 36.2823 16.8314C47.0168 16.8314 55.6612 25.4758 55.6612 36.2103C55.6612 44.3803 52.9252 62.9806 52.9252 62.9806C52.8558 63.3466 52.861 63.7228 52.9404 64.0868C53.0198 64.4507 53.1719 64.7949 53.3875 65.0987C53.6031 65.4025 53.8777 65.6596 54.195 65.8548C54.5124 66.0499 54.8658 66.179 55.2342 66.2343C55.6026 66.2897 55.9783 66.2701 56.339 66.1768C56.6996 66.0835 57.0377 65.9183 57.333 65.6913C57.6283 65.4642 57.8748 65.1799 58.0576 64.8553C58.2405 64.5308 58.3559 64.1727 58.3971 63.8024C58.3971 63.8024 61.198 45.5477 61.198 36.2103C61.198 22.4831 50.0095 11.2946 36.2823 11.2946ZM65.3614 17.4532C64.8816 17.4614 64.4121 17.5942 63.9991 17.8385C63.5861 18.0828 63.2436 18.4303 63.0053 18.8468C62.7671 19.2634 62.6412 19.7347 62.64 20.2146C62.6388 20.6945 62.7623 21.1665 62.9985 21.5842C65.3789 25.9263 66.7348 30.8988 66.7348 36.2103C66.7348 39.2452 66.2884 42.1636 65.4587 44.9264C65.3388 45.2785 65.291 45.6512 65.3182 46.0222C65.3454 46.3932 65.4472 46.7549 65.6173 47.0857C65.7874 47.4165 66.0224 47.7096 66.3083 47.9476C66.5943 48.1855 66.9252 48.3634 67.2814 48.4706C67.6376 48.5779 68.0117 48.6122 68.3815 48.5716C68.7513 48.531 69.1091 48.4164 69.4335 48.2344C69.758 48.0525 70.0425 47.8071 70.27 47.5128C70.4975 47.2185 70.6633 46.8813 70.7576 46.5215C71.7386 43.2548 72.2716 39.7919 72.2716 36.2103C72.2716 29.9553 70.6672 24.0554 67.8541 18.9239C67.6147 18.4727 67.2551 18.0965 66.8152 17.8369C66.3753 17.5774 65.8721 17.4446 65.3614 17.4532ZM18.6986 19.7945C18.2964 19.8157 17.9037 19.9245 17.5479 20.1131C17.1921 20.3018 16.8818 20.5658 16.6385 20.8867C13.3389 25.1108 11.3666 30.4461 11.3666 36.2103C11.3666 49.2321 9.20919 57.6871 9.20919 57.6871C9.10853 58.0428 9.08012 58.415 9.12563 58.7819C9.17115 59.1487 9.28966 59.5027 9.47418 59.8231C9.65871 60.1434 9.90551 60.4235 10.2 60.6469C10.4946 60.8703 10.8308 61.0324 11.189 61.1238C11.5472 61.2152 11.9201 61.2339 12.2856 61.1788C12.6512 61.1237 13.002 60.996 13.3174 60.8032C13.6328 60.6104 13.9064 60.3564 14.122 60.0561C14.3377 59.7559 14.491 59.4155 14.573 59.0551C14.573 59.0551 16.9034 49.8537 16.9034 36.2103C16.9034 31.7037 18.4326 27.5825 21.002 24.2931C21.3366 23.8766 21.5435 23.3721 21.5977 22.8405C21.652 22.309 21.5513 21.7731 21.3078 21.2975C21.0643 20.8219 20.6883 20.427 20.2254 20.1603C19.7624 19.8936 19.2321 19.7665 18.6986 19.7945ZM36.2823 22.3682C28.6705 22.3682 22.4402 28.5985 22.4402 36.2103C22.4402 55.6397 19.7638 65.7976 19.7638 65.7976C19.6554 66.1543 19.6201 66.5291 19.6601 66.8996C19.7001 67.2702 19.8145 67.6288 19.9964 67.9541C20.1784 68.2794 20.4241 68.5646 20.7189 68.7926C21.0137 69.0207 21.3515 69.1868 21.7121 69.2812C22.0727 69.3755 22.4486 69.3961 22.8173 69.3416C23.186 69.2872 23.5399 69.1589 23.8578 68.9643C24.1757 68.7698 24.4511 68.5131 24.6674 68.2096C24.8838 67.9061 25.0366 67.5621 25.1167 67.1981C25.1167 67.1981 27.9771 56.1587 27.9771 36.2103C27.9771 31.5912 31.6632 27.905 36.2823 27.905C40.9013 27.905 44.5875 31.5912 44.5875 36.2103C44.5875 39.5261 44.4466 42.987 44.2307 46.3539C44.2043 46.7185 44.2505 47.0848 44.3665 47.4314C44.4824 47.7781 44.6659 48.0984 44.9063 48.3739C45.1467 48.6493 45.4393 48.8744 45.7671 49.0361C46.095 49.1979 46.4516 49.2931 46.8164 49.3163C47.1813 49.3395 47.5471 49.2902 47.8928 49.1713C48.2385 49.0524 48.5572 48.8662 48.8306 48.6235C49.1039 48.3807 49.3265 48.0862 49.4854 47.757C49.6444 47.4278 49.7366 47.0704 49.7567 46.7054C49.9782 43.2508 50.1243 39.6826 50.1243 36.2103C50.1243 28.5985 43.8941 22.3682 36.2823 22.3682ZM3.00731 31.1601C2.3222 31.1927 1.67356 31.4784 1.18707 31.9619C0.700585 32.4453 0.410875 33.0922 0.374075 33.7771C0.320046 34.5815 0.292969 35.3937 0.292969 36.2103C0.292969 39.241 0.672232 42.1821 1.37979 44.9913C1.46405 45.3486 1.61852 45.6856 1.83422 45.9826C2.04991 46.2796 2.32252 46.5308 2.63619 46.7215C2.94985 46.9122 3.29831 47.0387 3.66129 47.0935C4.02427 47.1482 4.39452 47.1303 4.7505 47.0407C5.10648 46.9511 5.44109 46.7915 5.73485 46.5714C6.02861 46.3513 6.27567 46.0749 6.46164 45.7584C6.64761 45.4419 6.76879 45.0916 6.81812 44.7279C6.86745 44.3641 6.84395 43.9942 6.74899 43.6396C6.14985 41.2608 5.82979 38.7773 5.82979 36.2103C5.82979 35.5153 5.85445 34.8296 5.90008 34.1502C5.93202 33.7577 5.87989 33.363 5.74717 32.9923C5.61444 32.6216 5.40417 32.2834 5.13039 32.0005C4.85662 31.7175 4.52563 31.4961 4.15952 31.3512C3.79341 31.2063 3.4006 31.1411 3.00731 31.1601ZM36.239 33.404C35.5058 33.4155 34.807 33.7174 34.2961 34.2435C33.7851 34.7696 33.5038 35.477 33.5139 36.2103C33.5139 43.7381 33.1076 49.9476 32.5785 54.843C32.5322 55.208 32.5591 55.5785 32.6576 55.933C32.7561 56.2874 32.9243 56.6187 33.1524 56.9074C33.3804 57.1962 33.6637 57.4366 33.9857 57.6145C34.3077 57.7925 34.6619 57.9046 35.0277 57.9441C35.3935 57.9836 35.7635 57.9498 36.1161 57.8447C36.4686 57.7396 36.7967 57.5653 37.0812 57.332C37.3656 57.0986 37.6007 56.8109 37.7727 56.4857C37.9447 56.1604 38.0501 55.8042 38.0828 55.4377C38.6334 50.3447 39.0507 43.9364 39.0507 36.2103C39.0558 35.8399 38.9865 35.4723 38.8469 35.1291C38.7073 34.786 38.5003 34.4744 38.2382 34.2127C37.976 33.951 37.664 33.7446 37.3206 33.6057C36.9772 33.4668 36.6094 33.3982 36.239 33.404ZM45.8528 56.238C45.1666 56.2372 44.5047 56.4912 43.9951 56.9507C43.4856 57.4103 43.1649 58.0426 43.0952 58.7252C42.4537 64.268 41.8516 68.0199 41.8516 68.0199C41.7939 68.3793 41.8077 68.7464 41.892 69.1005C41.9763 69.4545 42.1295 69.7884 42.3429 70.0832C42.5563 70.378 42.8257 70.6279 43.1356 70.8186C43.4456 71.0093 43.7901 71.137 44.1494 71.1946C44.5088 71.2521 44.876 71.2383 45.23 71.1539C45.584 71.0695 45.9179 70.9162 46.2126 70.7027C46.5074 70.4893 46.7572 70.2198 46.9478 69.9098C47.1384 69.5998 47.2661 69.2552 47.3235 68.8959C47.3235 68.8959 47.9454 65.0159 48.5996 59.3633C48.6503 58.9727 48.6171 58.5759 48.5023 58.1992C48.3874 57.8225 48.1935 57.4747 47.9336 57.1789C47.6736 56.8831 47.3535 56.6462 46.9947 56.4839C46.6359 56.3217 46.2466 56.2378 45.8528 56.238ZM33.5842 63.5591C32.9462 63.5586 32.3277 63.7784 31.8331 64.1814C31.3385 64.5843 30.9982 65.1457 30.8698 65.7706C30.4476 67.7013 30.1777 68.5498 30.1777 68.5498C30.0676 68.897 30.027 69.2625 30.0584 69.6254C30.0897 69.9883 30.1924 70.3414 30.3604 70.6645C30.5285 70.9877 30.7586 71.2745 31.0377 71.5085C31.3168 71.7426 31.6393 71.9193 31.9868 72.0285C32.3343 72.1376 32.6999 72.1772 33.0627 72.1448C33.4255 72.1125 33.7783 72.0089 34.101 71.8399C34.4237 71.671 34.7099 71.44 34.9431 71.1603C35.1764 70.8806 35.3522 70.5576 35.4604 70.2098C35.4604 70.2098 35.8188 69.0493 36.2769 66.9548C36.3712 66.549 36.3728 66.1273 36.2815 65.7209C36.1901 65.3145 36.0083 64.9339 35.7495 64.6075C35.4907 64.2811 35.1616 64.0174 34.7867 63.8358C34.4118 63.6543 34.0007 63.5597 33.5842 63.5591Z" fill="#45D279"/>
</svg>
