<svg width="15" height="15" viewBox="0 0 15 15" fill="none" xmlns="http://www.w3.org/2000/svg">
<path d="M3.39906 14.117H0.547051V4.93271H3.39906V14.117ZM1.97152 3.67989C1.05954 3.67989 0.319824 2.92451 0.319824 2.01253C0.319824 1.57448 0.493842 1.15436 0.803594 0.84461C1.11335 0.534857 1.53346 0.36084 1.97152 0.36084C2.40958 0.36084 2.82969 0.534857 3.13944 0.84461C3.4492 1.15436 3.62321 1.57448 3.62321 2.01253C3.62321 2.92451 2.88319 3.67989 1.97152 3.67989ZM14.0732 14.117H11.2273V9.64613C11.2273 8.58062 11.2058 7.21419 9.74452 7.21419C8.26171 7.21419 8.03449 8.37182 8.03449 9.56937V14.117H5.18555V4.93271H7.92087V6.18553H7.96079C8.34155 5.46393 9.27165 4.70241 10.6593 4.70241C13.5457 4.70241 14.0763 6.60313 14.0763 9.07192V14.117H14.0732Z" fill="#45D279"/>
</svg>
