<svg width="72" height="59" viewBox="0 0 72 59" fill="none" xmlns="http://www.w3.org/2000/svg">
<path d="M14.5544 11.5565C17.526 11.5565 19.9369 9.12226 19.9369 6.12193C19.9369 3.12161 17.526 0.687378 14.5544 0.687378C11.5827 0.687378 9.17181 3.12161 9.17181 6.12193C9.17181 9.12226 11.5827 11.5565 14.5544 11.5565ZM57.6147 11.5565C60.5863 11.5565 62.9973 9.12226 62.9973 6.12193C62.9973 3.12161 60.5863 0.687378 57.6147 0.687378C54.6431 0.687378 52.2322 3.12161 52.2322 6.12193C52.2322 9.12226 54.6431 11.5565 57.6147 11.5565ZM71.7103 53.6856L66.7763 41.2314L62.1675 46.4848L61.9432 48.5454L65.0494 56.3803C65.6101 57.7955 66.9557 58.656 68.3798 58.656C68.8284 58.656 69.2769 58.5767 69.7142 58.3956C71.5533 57.6483 72.4504 55.5424 71.7103 53.6856ZM67.8752 29.9321L65.8007 20.8518C65.2849 18.5875 63.715 16.6854 61.5956 15.7683C59.521 14.8625 57.2223 15.0097 55.3047 16.1419C52.7592 17.659 50.8529 20.048 49.911 22.8672L48.6438 26.7053L46.8496 27.8602V16.991C46.8496 15.9947 46.0423 15.1795 45.0555 15.1795H27.1136C26.1268 15.1795 25.3195 15.9947 25.3195 16.991V27.8602L23.5141 26.7053L22.2469 22.8672C21.3162 20.0367 19.3986 17.659 16.8532 16.1419C14.9244 15.0097 12.6368 14.8625 10.5623 15.7683C8.44292 16.6854 6.87301 18.5875 6.35719 20.8518L4.29388 29.9321C3.77805 32.1965 4.37237 34.5967 5.90864 36.3517L13.4442 44.945L14.5768 55.4292C14.7786 57.2747 16.3261 58.656 18.1427 58.656C18.2773 58.656 18.4006 58.6447 18.5352 58.6333C20.5088 58.4182 21.9217 56.6293 21.7087 54.6367L20.5761 44.1299C20.4079 42.658 19.8023 41.288 18.8268 40.1672L13.9712 34.6194L15.9448 26.66L16.7074 28.9697C17.1671 30.385 18.0418 31.6191 19.4547 32.6607L25.1849 36.3403C25.7007 36.6687 26.5417 36.8611 27.1136 36.9064H45.0555C45.6274 36.8611 46.4684 36.6687 46.9842 36.3403L52.7144 32.6607C54.1273 31.6191 55.002 30.3963 55.4617 28.9697L56.2242 26.66L58.1978 34.6194L53.3423 40.1672C52.3667 41.288 51.7612 42.658 51.593 44.1299L50.4604 54.6367C50.2474 56.6293 51.6715 58.4182 53.6339 58.6333C53.7685 58.6447 53.8918 58.656 54.0264 58.656C55.8318 58.656 57.3905 57.286 57.5923 55.4292L58.7249 44.945L66.2604 36.3517C67.7855 34.5967 68.391 32.1965 67.8752 29.9321ZM5.39281 41.2314L0.458812 53.6856C-0.281288 55.5424 0.615803 57.6483 2.45484 58.3956C4.33873 59.1428 6.39083 58.2031 7.11971 56.3803L10.2259 48.5454L10.0016 46.4848L5.39281 41.2314Z" fill="#45D279"/>
</svg>
