<svg width="86" height="68" viewBox="0 0 86 68" fill="none" xmlns="http://www.w3.org/2000/svg">
<path d="M66.7057 49.1704L75.9841 39.9677C78.2236 37.7463 77.3017 33.9514 74.283 32.9891L68.7445 31.2234V12.8077C68.7445 10.4846 66.8458 8.60143 64.5037 8.60143H56.0221V3.34364C56.0221 1.60134 54.5981 0.188965 52.8415 0.188965H33.7579C32.0012 0.188965 30.5772 1.60134 30.5772 3.34364V8.60143H22.0956C19.7535 8.60143 17.8548 10.4846 17.8548 12.8077V31.2234L12.3163 32.9891C9.30099 33.9503 8.37318 37.7438 10.6152 39.9677L19.8936 49.1704C17.567 54.9077 12.234 59.0762 4.07221 59.0762C2.31558 59.0762 0.891602 60.4886 0.891602 62.2309V64.334C0.891602 66.0763 2.31558 67.4887 4.07221 67.4887C12.1593 67.4887 18.3185 64.7796 23.0575 59.6814C24.9684 64.2594 29.5198 67.4887 34.8181 67.4887H51.7813C57.0795 67.4887 61.6309 64.2594 63.5418 59.6814C68.28 64.7788 74.4388 67.4887 82.5271 67.4887C84.2837 67.4887 85.7077 66.0763 85.7077 64.334V62.2309C85.7077 60.4886 84.2837 59.0762 82.5271 59.0762C74.4673 59.0762 69.0702 55.0013 66.7057 49.1704ZM26.3364 17.0139H60.2629V28.5194L44.5973 23.5252C43.7535 23.2561 42.8458 23.2561 42.002 23.5252L26.3364 28.5194V17.0139Z" fill="#45D279"/>
</svg>
