<svg width="85" height="44" viewBox="0 0 85 44" fill="none" xmlns="http://www.w3.org/2000/svg">
<path d="M83.6211 9.19364L55.3414 17.6179L48.663 14.2794C47.4876 13.6919 46.1916 13.3858 44.8774 13.3853H37.3525V7.03632H44.7597C45.929 7.03632 46.876 6.08927 46.876 4.92001V2.80369C46.876 1.63443 45.929 0.687378 44.7597 0.687378H23.5962C22.4269 0.687378 21.4799 1.63443 21.4799 2.80369V4.92001C21.4799 6.08927 22.4269 7.03632 23.5962 7.03632H31.0034V13.3853H23.5962L5.3057 10.06C5.05308 10.0134 4.79673 9.98991 4.53984 9.9899C2.25683 9.9899 0.316406 11.8456 0.316406 14.2239V26.7829C0.316406 28.8277 1.77933 30.5816 3.79251 30.9467L13.0145 32.6252V38.781C13.0145 41.1182 14.9099 43.0137 17.2472 43.0137H53.573C54.7039 43.0137 55.7885 42.5613 56.5835 41.7558L84.6595 13.3509C84.8579 13.1525 84.969 12.8826 84.969 12.6022V10.2108C84.9703 9.50844 84.297 9.00052 83.6211 9.19364ZM13.0145 26.1718L6.66545 25.0171V16.7595L13.0145 17.9142V26.1718ZM72.9772 37.3697C72.9772 40.486 75.5036 43.0137 78.6213 43.0137C81.7389 43.0137 84.2653 40.4873 84.2653 37.3697C84.2653 34.2521 78.6213 26.0831 78.6213 26.0831C78.6213 26.0831 72.9772 34.2534 72.9772 37.3697Z" fill="#45D279"/>
</svg>
