<svg width="73" height="75" viewBox="0 0 73 75" fill="none" xmlns="http://www.w3.org/2000/svg">
<path d="M12.8407 0.758139C12.4708 0.753171 12.1037 0.822383 11.761 0.961688C11.4183 1.10099 11.107 1.30756 10.8455 1.5692C10.3265 2.08836 10.0349 2.79242 10.0349 3.52655C10.0349 4.26068 10.3265 4.96474 10.8455 5.4839C11.3647 6.00295 12.0687 6.29454 12.8029 6.29454C13.537 6.29454 14.2411 6.00295 14.7602 5.4839C15.2793 4.96474 15.5709 4.26068 15.5709 3.52655C15.5709 2.79242 15.2793 2.08836 14.7602 1.5692C14.2504 1.05917 13.5618 0.768177 12.8407 0.758139ZM59.8226 0.758139C59.4518 0.752444 59.0836 0.821304 58.74 0.960629C58.3963 1.09995 58.0841 1.3069 57.822 1.5692C57.3029 2.08836 57.0113 2.79242 57.0113 3.52655C57.0113 4.26068 57.3029 4.96474 57.822 5.4839C58.3411 6.00295 59.0452 6.29454 59.7793 6.29454C60.5135 6.29454 61.2175 6.00295 61.7367 5.4839C62.2557 4.96474 62.5473 4.26068 62.5473 3.52655C62.5473 2.79242 62.2557 2.08836 61.7367 1.5692C61.2282 1.06046 60.5418 0.769577 59.8226 0.758139ZM36.2911 2.09909C22.5293 2.09909 11.3754 13.253 11.3754 27.0148C11.3754 40.8568 22.449 46.3937 27.9859 57.4673H44.5963C50.1332 46.3937 61.2068 40.8568 61.2068 27.0148C61.2068 13.253 50.0529 2.09909 36.2911 2.09909ZM36.2911 10.4043V24.2464H47.3647L36.2911 43.6252V29.7832H25.2175L36.2911 10.4043ZM3.07017 24.2464C2.33594 24.2464 1.63178 24.538 1.11261 25.0572C0.593429 25.5764 0.301758 26.2806 0.301758 27.0148C0.301758 27.749 0.593429 28.4532 1.11261 28.9723C1.63178 29.4915 2.33594 29.7832 3.07017 29.7832C3.8044 29.7832 4.50855 29.4915 5.02773 28.9723C5.54691 28.4532 5.83858 27.749 5.83858 27.0148C5.83858 26.2806 5.54691 25.5764 5.02773 25.0572C4.50855 24.538 3.8044 24.2464 3.07017 24.2464ZM69.512 24.2464C68.7778 24.2464 68.0736 24.538 67.5545 25.0572C67.0353 25.5764 66.7436 26.2806 66.7436 27.0148C66.7436 27.749 67.0353 28.4532 67.5545 28.9723C68.0736 29.4915 68.7778 29.7832 69.512 29.7832C70.2463 29.7832 70.9504 29.4915 71.4696 28.9723C71.9888 28.4532 72.2804 27.749 72.2804 27.0148C72.2804 26.2806 71.9888 25.5764 71.4696 25.0572C70.9504 24.538 70.2463 24.2464 69.512 24.2464ZM12.8407 47.7346C12.4699 47.7289 12.1018 47.7978 11.7581 47.9371C11.4144 48.0764 11.1023 48.2834 10.8401 48.5457C10.3211 49.0648 10.0295 49.7689 10.0295 50.503C10.0295 51.2371 10.3211 51.9412 10.8401 52.4604C11.0973 52.7182 11.4028 52.9227 11.7391 53.0623C12.0754 53.2019 12.436 53.2737 12.8002 53.2737C13.1643 53.2737 13.5249 53.2019 13.8612 53.0623C14.1976 52.9227 14.5031 52.7182 14.7602 52.4604C15.2793 51.9412 15.5709 51.2371 15.5709 50.503C15.5709 49.7689 15.2793 49.0648 14.7602 48.5457C14.2504 48.0356 13.5618 47.7446 12.8407 47.7346ZM59.8172 47.74C59.4477 47.7343 59.0808 47.8027 58.7381 47.9411C58.3954 48.0794 58.0839 48.285 57.822 48.5457C57.5642 48.8028 57.3596 49.1083 57.22 49.4447C57.0805 49.781 57.0086 50.1416 57.0086 50.5057C57.0086 50.8699 57.0805 51.2304 57.22 51.5668C57.3596 51.9031 57.5642 52.2086 57.822 52.4658C58.3411 52.9848 59.0452 53.2764 59.7793 53.2764C60.5135 53.2764 61.2175 52.9848 61.7367 52.4658C61.9945 52.2086 62.1991 51.9031 62.3386 51.5668C62.4782 51.2304 62.55 50.8699 62.55 50.5057C62.55 50.1416 62.4782 49.781 62.3386 49.4447C62.1991 49.1083 61.9945 48.8028 61.7367 48.5457C61.226 48.0376 60.5375 47.7486 59.8172 47.74ZM27.9859 63.0041V65.7725C27.9859 68.8316 30.4636 71.3094 33.5227 71.3094C33.5227 72.0436 33.8144 72.7477 34.3335 73.2669C34.8527 73.7861 35.5569 74.0778 36.2911 74.0778C37.0253 74.0778 37.7295 73.7861 38.2487 73.2669C38.7678 72.7477 39.0595 72.0436 39.0595 71.3094C42.1186 71.3094 44.5963 68.8316 44.5963 65.7725V63.0041H27.9859Z" fill="#45D279"/>
</svg>
