<svg width="17" height="14" viewBox="0 0 17 14" fill="none" xmlns="http://www.w3.org/2000/svg">
<path d="M14.7862 4.17197C14.7962 4.31162 14.7962 4.4513 14.7962 4.59096C14.7962 8.85054 11.5541 13.7586 5.62859 13.7586C3.80304 13.7586 2.10719 13.2298 0.680664 12.3121C0.940041 12.342 1.18941 12.352 1.45876 12.352C2.96506 12.352 4.3517 11.8433 5.459 10.9754C4.04246 10.9454 2.85535 10.0177 2.44634 8.74083C2.64587 8.77073 2.84537 8.79069 3.05488 8.79069C3.34416 8.79069 3.63348 8.75077 3.9028 8.68098C2.42641 8.38168 1.31908 7.08486 1.31908 5.51869V5.4788C1.74802 5.71822 2.24684 5.86785 2.77551 5.88778C1.90763 5.30918 1.33904 4.3216 1.33904 3.20432C1.33904 2.60579 1.49862 2.05713 1.77796 1.57829C3.36409 3.53352 5.74829 4.81038 8.42173 4.95007C8.37187 4.71065 8.34193 4.46128 8.34193 4.21189C8.34193 2.4362 9.77843 0.989746 11.5641 0.989746C12.4918 0.989746 13.3297 1.3788 13.9183 2.00726C14.6465 1.86761 15.3448 1.59825 15.9633 1.22916C15.7239 1.97735 15.2151 2.60582 14.5468 3.00482C15.1952 2.93502 15.8237 2.75542 16.4023 2.50606C15.9634 3.14447 15.4147 3.71306 14.7862 4.17197Z" fill="#45D279"/>
</svg>
